<svg width="12" height="12" viewBox="0 0 12 12" fill="none" xmlns="http://www.w3.org/2000/svg">
<path fill-rule="evenodd" clip-rule="evenodd" d="M0.166664 5.22413C0.166664 2.43097 2.40686 0.166672 5.17029 0.166672C6.49733 0.166672 7.77002 0.69951 8.70838 1.64797C9.64674 2.59642 10.1739 3.88281 10.1739 5.22413C10.1739 8.01728 7.93371 10.2816 5.17029 10.2816C2.40686 10.2816 0.166664 8.01728 0.166664 5.22413ZM10.0911 9.29834L11.5813 10.5012H11.6072C11.9087 10.806 11.9087 11.3001 11.6072 11.6048C11.3057 11.9095 10.8169 11.9095 10.5154 11.6048L9.27874 10.1874C9.16183 10.0697 9.09611 9.90972 9.09611 9.74289C9.09611 9.57606 9.16183 9.4161 9.27874 9.29834C9.50421 9.07439 9.86565 9.07439 10.0911 9.29834Z" fill="#490057"/>
</svg>
