<svg width="20" height="20" viewBox="0 0 20 20" fill="none" xmlns="http://www.w3.org/2000/svg">
<path fill-rule="evenodd" clip-rule="evenodd" d="M18.4023 11.5801C18.7599 11.7701 19.0359 12.0701 19.23 12.3701C19.6082 12.9901 19.5775 13.7501 19.2096 14.4201L18.4942 15.6201C18.1161 16.2601 17.411 16.6601 16.6854 16.6601C16.3277 16.6601 15.9291 16.5601 15.6021 16.3601C15.3364 16.1901 15.0298 16.1301 14.7028 16.1301C13.691 16.1301 12.8428 16.9601 12.8121 17.9501C12.8121 19.1001 11.8719 20.0001 10.6967 20.0001H9.30683C8.12136 20.0001 7.18116 19.1001 7.18116 17.9501C7.16072 16.9601 6.3125 16.1301 5.30076 16.1301C4.96351 16.1301 4.65693 16.1901 4.40144 16.3601C4.07441 16.5601 3.66563 16.6601 3.31816 16.6601C2.58235 16.6601 1.8772 16.2601 1.49908 15.6201L0.793928 14.4201C0.415804 13.7701 0.395365 12.9901 0.773489 12.3701C0.937002 12.0701 1.24359 11.7701 1.59106 11.5801C1.8772 11.4401 2.06116 11.2101 2.23489 10.9401C2.74587 10.0801 2.43928 8.95009 1.57062 8.44009C0.558878 7.87009 0.231852 6.60009 0.814367 5.61009L1.49908 4.43009C2.09181 3.44009 3.35904 3.09009 4.381 3.67009C5.2701 4.15009 6.42491 3.83009 6.94611 2.98009C7.10962 2.70009 7.2016 2.40009 7.18116 2.10009C7.16072 1.71009 7.27314 1.34009 7.46731 1.04009C7.84543 0.420092 8.53015 0.0200916 9.27617 9.15527e-05H10.7171C11.4734 9.15527e-05 12.1581 0.420092 12.5362 1.04009C12.7202 1.34009 12.8428 1.71009 12.8121 2.10009C12.7917 2.40009 12.8837 2.70009 13.0472 2.98009C13.5684 3.83009 14.7232 4.15009 15.6225 3.67009C16.6343 3.09009 17.9117 3.44009 18.4942 4.43009L19.1789 5.61009C19.7717 6.60009 19.4447 7.87009 18.4227 8.44009C17.554 8.95009 17.2474 10.0801 17.7686 10.9401C17.9322 11.2101 18.1161 11.4401 18.4023 11.5801ZM7.10962 10.0101C7.10962 11.5801 8.40751 12.8301 10.012 12.8301C11.6165 12.8301 12.8837 11.5801 12.8837 10.0101C12.8837 8.44009 11.6165 7.18009 10.012 7.18009C8.40751 7.18009 7.10962 8.44009 7.10962 10.0101Z" fill="white"/>
</svg>
